<?xml version="1.0" encoding="UTF-8"?>
<svg id="Layer_1" xmlns="http://www.w3.org/2000/svg" version="1.1" viewBox="0 0 226.32 160.9">
  <!-- Generator: Adobe Illustrator 29.8.1, SVG Export Plug-In . SVG Version: 2.1.1 Build 2)  -->
  <defs>
    <style>
      .st0 {
        fill: #ec5625;
      }

      .st0, .st1, .st2, .st3, .st4, .st5, .st6, .st7, .st8, .st9 {
        stroke-width: 4.36px;
      }

      .st0, .st1, .st3, .st4, .st5, .st6, .st7, .st8, .st9 {
        stroke: #002a3d;
      }

      .st0, .st4, .st7, .st8, .st9 {
        stroke-miterlimit: 10;
      }

      .st1, .st2, .st3, .st5, .st6 {
        stroke-linejoin: round;
      }

      .st1, .st2, .st3, .st6 {
        stroke-linecap: round;
      }

      .st1, .st2, .st5, .st7 {
        fill: none;
      }

      .st2 {
        stroke: #f6871f;
      }

      .st3, .st10 {
        fill: #559f68;
      }

      .st4 {
        fill: #005c83;
      }

      .st6, .st11 {
        fill: #ec6327;
      }

      .st8 {
        fill: #0a90b4;
      }

      .st12 {
        fill: #fbb337;
      }

      .st9 {
        fill: #f8b235;
      }

      .st13 {
        fill: #002a3d;
      }
    </style>
  </defs>
  <g>
    <polyline class="st2" points="217.33 5.12 178.67 47.97 219.52 63.47"/>
    <line class="st2" x1="222.25" y1="30.1" x2="178.67" y2="47.97"/>
    <path class="st1" d="M179.5,47.05l-26.13,9.67s7.91,2.77,13.82,5.11c1.6.63,6.24,2.73,6.56,8.75.27,5.11-3.65,9.48-3.65,9.48"/>
    <polygon class="st3" points="169.19 39.95 154.41 59.82 150.52 39.95 161.71 31.88 169.19 39.95"/>
    <path class="st9" d="M153.6,58.22l6.26,21.48s-12.19,15.32-18.02,18.05-6.93,1.46-9.12.36c-2.19-1.09-4.74-6.56-4.74-6.56l25.62-33.33Z"/>
    <path class="st0" d="M151.41,89.46l3.01,3.37s15.32-6.38,24.25-6.38,35.74,4.01,33.37,29.72c-2.37,25.71-19.72,25.64-19.33,24.62.55-1.45,3.84-5.9,4.01-10.94.24-7.04-3.21-10.63-7.29-9.54,0,0,3.28-4.67,2.37-8.33-.91-3.65-2.98-6.38-6.08-6.2,0,0-3.76,5.29-7.05,6.93s-7.48,3.83-9.48,3.83,4.83,14.41,15.68,15.68c0,0-3.98,3.24-9.66,2.67-3.12-.31-16.41-3.21-19.33-18.17-.43-2.23-4.09-3.22-6.38-5.65-2.55-2.7-10.09-13.67-10.03-15.5.06-1.82,11.95-6.1,11.95-6.1Z"/>
    <path class="st6" d="M127.97,107.23l8.21,18.96s-7.42,27.74-7.48,26.99c-.73-8.94-.73-19.47-1.46-24.8-.17-1.26-4.56-17.14-4.56-17.51s5.29-3.65,5.29-3.65Z"/>
    <path class="st6" d="M111.01,116.17l-2.01,16.78s-10.03,16.83-17.51,21.34c0,0,5.11-9.48,6.93-18.78.89-4.53,3.33-15.68,2.85-17.51l9.73-1.82Z"/>
    <path class="st6" d="M88.95,118.54c-.55,1.28-4.62,7.55-8.94,14.22-3.75,5.79-16.23,16.24-18.42,16.78-1.2,2.44,9.01-15.25,15.86-30.28,1.44-3.15,11.49-.73,11.49-.73Z"/>
    <path class="st6" d="M65.24,117.81c-4.17,3.28-16.52,14.37-27.9,20.06-7.66,3.83,10.03-10.68,18.05-21.7.99-1.36,9.85,1.64,9.85,1.64Z"/>
    <path class="st11" d="M115.17,89.91c-1.53,2.23-1.87,21.15,0,23.89,1.87,2.74,17.55-9.48,17.55-11.94s-4.19-13.04-6.2-13.59-11.35,1.64-11.35,1.64Z"/>
    <path class="st12" d="M74.99,68.46c-1.72,4.01-6.1,11.61-7.92,27.72-.62,5.45.55,17.52,1.28,20.08.73,2.55,18.96,2.17,21.7,1.99,2.74-.18,24.29-1.37,23.84-4.04-4.33-26.01,3.12-44.01.43-44.69s-39.33-1.05-39.33-1.05Z"/>
    <path class="st4" d="M36.98,82.07c-8.21-9.12-20.06-15.86-20.06-15.86-8.94,12.6-9.83,25.52-9.85,29.36-.03,6.41,2.69,15.01,8.75,25.53,0,0,8.75-5.28,19.53-15.95.89-.89,1.63-23.07,1.63-23.07Z"/>
    <path class="st5" d="M7.98,105.78s12.52-4.97,24.95-8.23"/>
    <path class="st5" d="M7.07,84.32c2.01.36,22.15,4.68,25.86,5.95"/>
    <path class="st5" d="M193.62,88.18c-.91,2.64-5.56,19.2-14.95,24.52-9.39,5.33-18.42,3.48-24.25,1.82"/>
    <path class="st5" d="M96.61,68.94c-.55.91-7.84,17.69-8.21,26.63s.55,15.68,2.01,22.24"/>
    <path class="st7" d="M113.89,93.38c-.87,2.37-1.86,10.39,1.28,20.42"/>
    <path class="st10" d="M73.27,70.71c3.59-3.12-16.41.54-22.16,3.03s-18.17,7.51-18.17,12.02-.97,14.71,0,15.9,6.65,8.27,11.94,10.31,19.67,3.59,21.93,4.26,1.01-20.67,1.73-25.96,3.71-18.67,4.73-19.57Z"/>
    <path class="st5" d="M54.85,71.86c-.58,2.36-6.75,16.32-7.48,40.12"/>
    <path class="st5" d="M74.99,68.46c-.55.91-8.04,15.86-8.02,27.77.02,8.94-.45,16.03,1.01,22.59"/>
    <path class="st7" d="M132.71,100.12c-1.28,3.83-8.7,10.66-12.95,12.76-11.8,5.86-28.92,7.23-43.77,5.92-22.79-2.01-35.72-7.29-40.65-13.67s-4.82-17.97,1.63-23.98c8.21-7.66,18.11-11.31,33.97-12.22s49.55-.29,51.19,1.77c1.64,2.06,10.58,29.41,10.58,29.41Z"/>
    <path class="st3" d="M151.68,45.85s-10.94,1.93-22.25,10.69c-11.31,8.75-18.42,22.98-18.42,27.17,0,4.74,1.43,10.21,8.75,11.73,4.38.91,10.94-3.53,11.58-4.44s15.04-13.13,23.07-27.5l-2.74-17.65Z"/>
    <circle class="st8" cx="172.89" cy="31.67" r="9.97"/>
    <circle class="st8" cx="150.28" cy="31.64" r="9.97"/>
  </g>
  <circle class="st13" cx="149.96" cy="31.55" r="2.1"/>
  <circle class="st13" cx="172.89" cy="31.55" r="2.1"/>
</svg>